<?xml version="1.0" encoding="utf-8"?>
<svg id="master-artboard" viewBox="0 0 189.94528198242188 315.5190734863281" version="1.1" xmlns="http://www.w3.org/2000/svg" x="0px" y="0px" width="189.94528198242188px" height="315.5190734863281px" enable-background="new 0 0 1400 980"><rect id="ee-background" x="0" y="0" width="189.94528198242188" height="315.5190734863281" style="fill: white; fill-opacity: 0; pointer-events: none;"/>




<g id="XMLID_287_" transform="matrix(1, 0, 0, 1, -990.6011552810669, -135.51913452148438)">
	<g id="XMLID_235_">
		<g id="XMLID_239_">
			<g id="XMLID_317_">
				<g id="XMLID_327_">
					<path id="XMLID_515_" fill="#7E94AF" d="M1125.8,232.6c-4.3,0-7.9-3.5-7.9-7.9v-46c0-4.3,3.5-7.9,7.9-7.9s7.9,3.5,7.9,7.9v46&#10;&#9;&#9;&#9;&#9;&#9;&#9;C1133.7,229.1,1130.1,232.6,1125.8,232.6z"/>
					<path id="XMLID_512_" fill="#101219" d="M1125.8,175.3c1.9,0,3.4,1.5,3.4,3.4v46c0,1.9-1.5,3.4-3.4,3.4s-3.4-1.5-3.4-3.4v-46&#10;&#9;&#9;&#9;&#9;&#9;&#9;C1122.4,176.9,1123.9,175.3,1125.8,175.3 M1125.8,166.3c-6.8,0-12.4,5.5-12.4,12.4v46c0,6.8,5.5,12.4,12.4,12.4&#10;&#9;&#9;&#9;&#9;&#9;&#9;c6.8,0,12.4-5.5,12.4-12.4v-46C1138.2,171.9,1132.6,166.3,1125.8,166.3L1125.8,166.3z"/>
				</g>
				<g id="XMLID_321_">
					<path id="XMLID_475_" fill="#7E94AF" d="M1154.9,287.4c-4.3,0-7.9-3.5-7.9-7.9v-46c0-4.3,3.5-7.9,7.9-7.9&#10;&#9;&#9;&#9;&#9;&#9;&#9;c4.3,0,7.9,3.5,7.9,7.9v46C1162.7,283.9,1159.2,287.4,1154.9,287.4z"/>
					<path id="XMLID_443_" fill="#101219" d="M1154.9,230.1c1.9,0,3.4,1.5,3.4,3.4v46c0,1.9-1.5,3.4-3.4,3.4s-3.4-1.5-3.4-3.4v-46&#10;&#9;&#9;&#9;&#9;&#9;&#9;C1151.5,231.7,1153,230.1,1154.9,230.1 M1154.9,221.1c-6.8,0-12.4,5.5-12.4,12.4v46c0,6.8,5.5,12.4,12.4,12.4&#10;&#9;&#9;&#9;&#9;&#9;&#9;c6.8,0,12.4-5.5,12.4-12.4v-46C1167.2,226.7,1161.7,221.1,1154.9,221.1L1154.9,221.1z"/>
				</g>
				
					
				
					
				
					
			</g>
		</g>
		<g id="XMLID_247_">
			<g id="XMLID_248_">
				<g id="XMLID_328_">
					<path id="XMLID_441_" fill="#7E94AF" d="M1044.6,232.6c-4.3,0-7.9-3.5-7.9-7.9v-46c0-4.3,3.5-7.9,7.9-7.9s7.9,3.5,7.9,7.9v46&#10;&#9;&#9;&#9;&#9;&#9;&#9;C1052.5,229.1,1048.9,232.6,1044.6,232.6z"/>
					<path id="XMLID_391_" fill="#101219" d="M1044.6,175.3c1.9,0,3.4,1.5,3.4,3.4v46c0,1.9-1.5,3.4-3.4,3.4s-3.4-1.5-3.4-3.4v-46&#10;&#9;&#9;&#9;&#9;&#9;&#9;C1041.2,176.9,1042.8,175.3,1044.6,175.3 M1044.6,166.3c-6.8,0-12.4,5.5-12.4,12.4v46c0,6.8,5.5,12.4,12.4,12.4&#10;&#9;&#9;&#9;&#9;&#9;&#9;c6.8,0,12.4-5.5,12.4-12.4v-46C1057,171.9,1051.4,166.3,1044.6,166.3L1044.6,166.3z"/>
				</g>
				<g id="XMLID_258_">
					<path id="XMLID_353_" fill="#7E94AF" d="M1015.5,287.4c-4.3,0-7.9-3.5-7.9-7.9v-46c0-4.3,3.5-7.9,7.9-7.9s7.9,3.5,7.9,7.9v46&#10;&#9;&#9;&#9;&#9;&#9;&#9;C1023.4,283.9,1019.9,287.4,1015.5,287.4z"/>
					<path id="XMLID_349_" fill="#101219" d="M1015.5,230.1c1.9,0,3.4,1.5,3.4,3.4v46c0,1.9-1.5,3.4-3.4,3.4s-3.4-1.5-3.4-3.4v-46&#10;&#9;&#9;&#9;&#9;&#9;&#9;C1012.2,231.7,1013.7,230.1,1015.5,230.1 M1015.5,221.1c-6.8,0-12.4,5.5-12.4,12.4v46c0,6.8,5.5,12.4,12.4,12.4&#10;&#9;&#9;&#9;&#9;&#9;&#9;s12.4-5.5,12.4-12.4v-46C1027.9,226.7,1022.4,221.1,1015.5,221.1L1015.5,221.1z"/>
				</g>
				
					
				
					
				
					
			</g>
		</g>
	</g>
	
		
	
		
	
		<path d="M 1169.800049 351.200012 L 1169.800049 383.100006" id="XMLID_293_" fill="#BFCFE8" stroke="#101219" stroke-width="9" stroke-linecap="round" stroke-linejoin="round" stroke-miterlimit="10"/>
	
		
	
		<path d="M 1000.599976 351.200012 L 1000.599976 383.100006" id="XMLID_339_" fill="#BFCFE8" stroke="#101219" stroke-width="9" stroke-linecap="round" stroke-linejoin="round" stroke-miterlimit="10"/>
	
		
	
		
	
		
	
		
	
		
	<g id="XMLID_225_">
		<g id="XMLID_40_">
			<g id="XMLID_251_">
				<path id="XMLID_329_" fill="#95A5C9" d="M1058,443.9c-8,0-15.4-4-19.9-10.6c-12.8-18.9-16.3-44.3-16.9-62.3&#10;&#9;&#9;&#9;&#9;&#9;c-0.5-14.7,0.8-25.3,0.8-25.7c0.3-2.3,2.2-4,4.5-4h34.6c1.2,0,2.4,0.5,3.2,1.3c0.8,0.9,1.3,2,1.3,3.2l-0.6,67.5l-0.2,23.9&#10;&#9;&#9;&#9;&#9;&#9;c0,1.7-0.7,3.4-2,4.7C1061.5,443.2,1059.8,443.9,1058,443.9z"/>
				<path id="XMLID_323_" fill="#101219" d="M1061,345.8l-0.6,67.5l-0.2,23.9c0,0.6-0.3,1.2-0.7,1.6c-0.4,0.4-0.9,0.6-1.6,0.6&#10;&#9;&#9;&#9;&#9;&#9;c-6.5,0-12.5-3.3-16.2-8.6c-12.1-17.8-15.5-42-16.2-60c-0.5-14.5,0.8-25,0.8-25H1061 M1061,336.8h-34.6c-4.5,0-8.4,3.4-8.9,7.9&#10;&#9;&#9;&#9;&#9;&#9;c-0.1,0.5-1.4,11.4-0.8,26.4c0.7,18.6,4.3,44.9,17.7,64.7c5.4,7.9,14.2,12.6,23.6,12.6c3,0,5.8-1.2,7.9-3.3&#10;&#9;&#9;&#9;&#9;&#9;c2.1-2.1,3.3-4.9,3.3-7.9l0.2-23.9l0.6-67.5c0-2.4-0.9-4.7-2.6-6.4C1065.7,337.8,1063.4,336.8,1061,336.8L1061,336.8z"/>
			</g>
			<g id="XMLID_250_">
				<path id="XMLID_316_" fill="#95A5C9" d="M1112.4,443.9c-1.8,0-3.5-0.7-4.7-2c-1.3-1.3-2-3-2-4.7l-0.2-23.8l-0.6-67.5&#10;&#9;&#9;&#9;&#9;&#9;c0-1.2,0.5-2.4,1.3-3.2c0.8-0.9,2-1.3,3.2-1.3h34.6c2.3,0,4.2,1.7,4.5,4c0.1,0.4,1.3,11,0.8,25.7c-0.6,18-4.1,43.4-16.9,62.3&#10;&#9;&#9;&#9;&#9;&#9;C1127.8,440,1120.4,443.9,1112.4,443.9z"/>
				<path id="XMLID_308_" fill="#101219" d="M1144,345.8c0,0,1.3,10.5,0.8,25c-0.6,18-4.1,42.1-16.2,60c-3.6,5.4-9.7,8.6-16.2,8.6&#10;&#9;&#9;&#9;&#9;&#9;c-0.6,0-1.2-0.2-1.6-0.6c-0.4-0.4-0.7-1-0.7-1.6l-0.2-23.9l-0.6-67.5H1144 M1144,336.8h-34.6c-2.4,0-4.7,1-6.4,2.7&#10;&#9;&#9;&#9;&#9;&#9;s-2.6,4-2.6,6.4l0.6,67.5l0.2,23.9c0,3,1.2,5.8,3.3,7.9c2.1,2.1,4.9,3.3,7.9,3.3c9.5,0,18.3-4.7,23.6-12.6&#10;&#9;&#9;&#9;&#9;&#9;c13.4-19.8,17-46.1,17.7-64.7c0.5-15-0.8-26-0.8-26.4C1152.4,340.2,1148.5,336.8,1144,336.8L1144,336.8z"/>
			</g>
			<path id="XMLID_236_" fill="#7E94AF" d="M1026.4,345.8h34.6l-0.6,67.5l-5.9-10.6l-16.9-30.4l-12-1.5&#10;&#9;&#9;&#9;&#9;C1025.1,356.3,1026.4,345.8,1026.4,345.8z"/>
			<path id="XMLID_238_" fill="#7E94AF" d="M1144.7,370.8l-12,1.5l-16.8,30.4l-5.9,10.6l-0.6-67.5h34.6&#10;&#9;&#9;&#9;&#9;C1144,345.8,1145.3,356.3,1144.7,370.8z"/>
		</g>
		<g id="XMLID_278_">
			<path id="XMLID_265_" fill="#95A5C9" d="M1085.2,418.3c-4.1,0-7.8-2.2-9.8-5.8l-28.1-50.7c-0.7-1.3-2-2.1-3.4-2.3L1000,354&#10;&#9;&#9;&#9;&#9;c-2.3-0.3-3.9-2.2-3.9-4.5c0-77.2,61.5-175,80.3-203.2c2-2.9,5.3-4.7,8.8-4.7c3.5,0,6.8,1.8,8.8,4.7&#10;&#9;&#9;&#9;&#9;c18.8,28.1,80.3,126,80.3,203.2c0,2.3-1.7,4.2-3.9,4.5l-43.9,5.5c-1.4,0.2-2.7,1.1-3.4,2.3l-28.1,50.7&#10;&#9;&#9;&#9;&#9;C1093,416.1,1089.3,418.3,1085.2,418.3z"/>
			<path id="XMLID_200_" fill="#101219" d="M1085.2,146.2c1.9,0,3.9,0.9,5.1,2.7c18.3,27.3,79.5,124.5,79.5,200.7L1126,355&#10;&#9;&#9;&#9;&#9;c-2.9,0.4-5.4,2.1-6.8,4.6l-19,34.4l-9.1,16.4c-1.3,2.3-3.6,3.4-5.8,3.4c-2.3,0-4.6-1.1-5.8-3.4l-9.1-16.4l-19-34.4&#10;&#9;&#9;&#9;&#9;c-1.4-2.5-3.9-4.3-6.8-4.6l-43.8-5.5c0-76.2,61.3-173.4,79.5-200.7C1081.3,147.1,1083.3,146.2,1085.2,146.2 M1085.2,137.2&#10;&#9;&#9;&#9;&#9;c-5,0-9.7,2.5-12.5,6.7c-19,28.4-81.1,127.2-81.1,205.7c0,4.5,3.4,8.4,7.9,8.9l43.8,5.5c0,0,0.1,0,0.1,0.1l19,34.4l9.1,16.4&#10;&#9;&#9;&#9;&#9;c2.8,5,8,8.1,13.7,8.1s11-3.1,13.7-8.1l9.1-16.4l19-34.4c0,0,0,0,0.1,0l43.8-5.5c4.5-0.6,7.9-4.4,7.9-8.9&#10;&#9;&#9;&#9;&#9;c0-78.5-62.1-177.3-81.1-205.7C1094.9,139.7,1090.2,137.2,1085.2,137.2L1085.2,137.2z"/>
		</g>
	</g>
	<g id="XMLID_240_">
		<path id="XMLID_230_" fill="#7E94AF" d="M1116,293.4l-6.5-7.9c-4.6-5.5-11.3-8.7-18.6-8.7h-11.3c-7.3,0-14,3.2-18.6,8.7l-6.5,7.9&#10;&#9;&#9;&#9;c-3.4,4.1-5.3,9.4-5.3,14.7v26.5c0,12.9,10.7,23.4,23.9,23.4h24.3c13.2,0,23.9-10.5,23.9-23.4v-26.5&#10;&#9;&#9;&#9;C1121.3,302.7,1119.4,297.5,1116,293.4z"/>
		<g id="XMLID_45_">
			<g id="XMLID_47_">
				<path id="XMLID_297_" fill="#5EF7F7" d="M1073,344.5c-5.7,0-10.4-4.4-10.4-9.9v-26.5c0-2.2,0.8-4.4,2.2-6.1l6.5-7.9&#10;&#9;&#9;&#9;&#9;&#9;c2-2.4,5-3.8,8.2-3.8h11.3c3.2,0,6.2,1.4,8.2,3.8l6.5,7.9c1.4,1.7,2.2,3.9,2.2,6.1v26.5c0,5.5-4.7,9.9-10.4,9.9H1073z"/>
				<g id="XMLID_274_">
					<path id="XMLID_276_" fill="#101219" d="M1090.8,294.7c1.8,0,3.6,0.8,4.7,2.1l6.5,7.9c0.8,0.9,1.2,2.1,1.2,3.3v26.5&#10;&#9;&#9;&#9;&#9;&#9;&#9;c0,3-2.6,5.4-5.9,5.4H1073c-3.2,0-5.9-2.4-5.9-5.4v-26.5c0-1.2,0.4-2.3,1.2-3.3l6.5-7.9c1.1-1.4,2.8-2.1,4.7-2.1H1090.8&#10;&#9;&#9;&#9;&#9;&#9;&#9; M1090.8,285.7h-11.3c-4.6,0-8.8,2-11.6,5.4l-6.5,7.9c-2.1,2.5-3.2,5.7-3.2,9v26.5c0,7.9,6.7,14.4,14.9,14.4h24.3&#10;&#9;&#9;&#9;&#9;&#9;&#9;c8.2,0,14.9-6.5,14.9-14.4v-26.5c0-3.2-1.2-6.4-3.2-9l-6.5-7.9C1099.7,287.7,1095.4,285.7,1090.8,285.7L1090.8,285.7z"/>
				</g>
			</g>
			
				<path d="M 1088.599976 309.899994 L 1088.599976 328.200012" id="XMLID_46_" fill="none" stroke="#C7FFFD" stroke-width="9" stroke-linecap="round" stroke-linejoin="round" stroke-miterlimit="10"/>
		</g>
		
			<path d="M 1085.199951 345.799988 L 1085.199951 359.600006" id="XMLID_188_" fill="#95A5C9" stroke="#101219" stroke-width="9" stroke-linecap="round" stroke-linejoin="round" stroke-miterlimit="10"/>
		
			<path d="M 1085.199951 267.899994 L 1085.199951 288.200012" id="XMLID_194_" fill="#95A5C9" stroke="#101219" stroke-width="9" stroke-linecap="round" stroke-linejoin="round" stroke-miterlimit="10"/>
	</g>
	<g id="XMLID_237_">
		<path id="XMLID_272_" fill="#7E94AF" d="M1085.2,418.3c-4.1,0-7.8-2.2-9.8-5.8l-9.1-16.4c-1.1-2-0.6-4.4,1.2-5.8&#10;&#9;&#9;&#9;c0.8-0.6,7.7-5.6,17.7-5.6c6,0,11.9,1.8,17.3,5.4c2,1.3,2.6,3.9,1.5,5.9l-9.1,16.4C1093,416.1,1089.3,418.3,1085.2,418.3z"/>
		<g id="XMLID_267_">
			<path id="XMLID_268_" fill="#101219" d="M1085.2,389.3c4.4,0,9.5,1.2,14.9,4.7l-9.1,16.4c-1.3,2.3-3.6,3.4-5.8,3.4&#10;&#9;&#9;&#9;&#9;c-2.3,0-4.6-1.1-5.8-3.4l-9.1-16.4C1070.6,393.8,1076.6,389.3,1085.2,389.3 M1085.2,380.3&#10;&#9;&#9;&#9;&#9;C1085.2,380.3,1085.2,380.3,1085.2,380.3c-11.5,0-19.5,5.9-20.4,6.5c-3.6,2.7-4.6,7.6-2.4,11.5l9.1,16.4c2.8,5,8,8.1,13.7,8.1&#10;&#9;&#9;&#9;&#9;c5.7,0,11-3.1,13.7-8.1l9.1-16.4c2.3-4.1,1-9.3-2.9-11.9C1098.8,382.4,1092.2,380.3,1085.2,380.3L1085.2,380.3z"/>
		</g>
	</g>
	
		
	<g id="XMLID_233_">
		<g id="XMLID_41_">
			
				<path d="M 1131.5 330.5 L 1136.5 330.5" id="XMLID_42_" fill="#95A5C9" stroke="#101219" stroke-width="9" stroke-linecap="round" stroke-linejoin="round" stroke-miterlimit="10"/>
			
				<path d="M 1131.5 315.600006 L 1136.5 315.600006" id="XMLID_43_" fill="#95A5C9" stroke="#101219" stroke-width="9" stroke-linecap="round" stroke-linejoin="round" stroke-miterlimit="10"/>
			
				<path d="M 1131.5 300.700012 L 1136.5 300.700012" id="XMLID_220_" fill="#95A5C9" stroke="#101219" stroke-width="9" stroke-linecap="round" stroke-linejoin="round" stroke-miterlimit="10"/>
		</g>
		<g id="XMLID_227_">
			
				<path d="M 1033.900024 330.5 L 1038.900024 330.5" id="XMLID_232_" fill="#95A5C9" stroke="#101219" stroke-width="9" stroke-linecap="round" stroke-linejoin="round" stroke-miterlimit="10"/>
			
				<path d="M 1033.900024 315.600006 L 1038.900024 315.600006" id="XMLID_231_" fill="#95A5C9" stroke="#101219" stroke-width="9" stroke-linecap="round" stroke-linejoin="round" stroke-miterlimit="10"/>
			
				<path d="M 1033.900024 300.700012 L 1038.900024 300.700012" id="XMLID_228_" fill="#95A5C9" stroke="#101219" stroke-width="9" stroke-linecap="round" stroke-linejoin="round" stroke-miterlimit="10"/>
		</g>
	</g>
	
		
	
		
</g>


</svg>