<?xml version="1.0" encoding="utf-8"?>
<svg id="master-artboard" viewBox="0 0 433.1754150390625 347.9384460449219" version="1.1" xmlns="http://www.w3.org/2000/svg" x="0px" y="0px" enable-background="new 0 0 1400 980" width="433.1754150390625px" height="347.9384460449219px"><rect id="ee-background" x="0" y="0" width="433.1754150390625" height="347.9384460449219" style="fill: white; fill-opacity: 0; pointer-events: none;"/>
<path d="M 1139 782 L 1139 876.2000122070312 L 1058.699951171875 858 L 1058.699951171875 788.4000244140625 Z" fill="#F26522" transform="matrix(1, 0, 0, 1, -923.3175048828125, -569.2180261611938)"/><path fill="#1F2121" d="M1142.5,880.6l-87.3-19.8v-75.6l87.3-7V880.6z M1062.2,855.2l73.3,16.6v-86.1l-73.3,5.9V855.2z" transform="matrix(1, 0, 0, 1, -923.3175048828125, -569.2180261611938)"/><path d="M 1058.699951171875 788.4000244140625 L 985.7999877929688 788.4000244140625 L 985.7999877929688 837.7999877929688 L 1058.699951171875 866.7999877929688 Z" fill="#0A82A3" transform="matrix(1, 0, 0, 1, -923.3175048828125, -569.2180261611938)"/><path fill="#1F2121" d="M1062.2,872l-79.9-31.8v-55.2h79.9V872z M989.3,835.4l65.9,26.2v-69.7h-65.9V835.4z" transform="matrix(1, 0, 0, 1, -923.3175048828125, -569.2180261611938)"/><path d="M 985.7999877929688 788.4000244140625 L 930 788.4000244140625 L 930 810.7000122070312 L 985.7999877929688 829.0999755859375 Z" fill="#F26522" transform="matrix(1, 0, 0, 1, -923.3175048828125, -569.2180261611938)"/><path fill="#1F2121" d="M989.3,833.9l-62.8-20.7v-28.2h62.8V833.9z M933.5,808.1l48.8,16.1v-32.3h-48.8V808.1z" transform="matrix(1, 0, 0, 1, -923.3175048828125, -569.2180261611938)"/><path d="M 1093.5999755859375 713.7999877929688 L 1093.5999755859375 668.2999877929688 L 1082.699951171875 652.0999755859375 L 1082.699951171875 618.4000244140625 L 1092.5999755859375 608.5 L 1092.5999755859375 577.2999877929688 L 1075.300048828125 577.2999877929688 L 1032.800048828125 645.5 L 1032.800048828125 685.9000244140625 L 1058.699951171875 788.4000244140625 Z" fill="#F26522" transform="matrix(1, 0, 0, 1, -923.3175048828125, -569.2180261611938)"/><path fill="#1F2121" d="M1057.7,798.8l-28.4-112.5v-41.8l44.1-70.7h22.7v36.2l-9.9,9.9v31.2l11,16.1v47.4L1057.7,798.8z&#10;&#9;&#9;&#9;&#9; M1036.3,685.5l23.4,92.6l30.5-65.1v-43.6l-11-16.1v-36.3l9.9-9.9v-26.3h-11.8l-41,65.8V685.5z" transform="matrix(1, 0, 0, 1, -923.3175048828125, -569.2180261611938)"/><path d="M 1102.4000244140625 866.7999877929688 L 1095.4000244140625 866.7999877929688 L 1095.4000244140625 820 L 1137.5 800.2999877929688 L 1140.5 806.7000122070312 L 1102.4000244140625 824.5 Z" fill="#1F2121" transform="matrix(1, 0, 0, 1, -923.3175048828125, -569.2180261611938)" style="fill-opacity: 0.1;"/><path d="M 1036.699951171875 701.2000122070312 L 1057 703.2999877929688 L 1063.199951171875 730.0999755859375 L 1050.4000244140625 755.5 Z" fill="#0A82A3" transform="matrix(1, 0, 0, 1, -923.3175048828125, -569.2180261611938)"/><path fill="#1F2121" d="M1049.3,765.4l-17.2-68.2l27.7,2.8l7.1,30.5L1049.3,765.4z M1041.3,705.2l10.2,40.3l8-15.9l-5.4-23.1&#10;&#9;&#9;&#9;&#9;L1041.3,705.2z" transform="matrix(1, 0, 0, 1, -923.3175048828125, -569.2180261611938)"/><path d="M 1073.300048828125 686.4000244140625 L 1032.800048828125 686.4000244140625 L 1032.800048828125 679.4000244140625 L 1066.300048828125 679.4000244140625 L 1066.300048828125 672.5 L 1056.9000244140625 659.7000122070312 L 1056.9000244140625 628.7000122070312 L 1075.199951171875 628.7000122070312 L 1075.199951171875 635.7000122070312 L 1063.9000244140625 635.7000122070312 L 1063.9000244140625 657.4000244140625 L 1073.300048828125 670.2999877929688 Z" fill="#1F2121" transform="matrix(1, 0, 0, 1, -923.3175048828125, -569.2180261611938)" style="fill-opacity: 0.35;"/><path d="M 996.0999755859375 841.9000244140625 L 1004.0999755859375 829.0999755859375 L 1032.800048828125 839.5999755859375 L 1040.699951171875 859.5999755859375 Z" fill="#F26522" transform="matrix(1, 0, 0, 1, -923.3175048828125, -569.2180261611938)"/><path fill="#1F2121" d="M1046.9,865.9l-56.1-22.3l11.8-18.8l32.8,12L1046.9,865.9z M1001.3,840.2l33.2,13.2l-4.4-11.1l-24.5-9&#10;&#9;&#9;&#9;&#9;L1001.3,840.2z" transform="matrix(1, 0, 0, 1, -923.3175048828125, -569.2180261611938)" style="fill-opacity: 1;"/><path d="M 930 810.7000122070312 L 930 759.2000122070312 L 939.2999877929688 749.5 L 939.2999877929688 813.7000122070312 Z" fill="#0A82A3" transform="matrix(1, 0, 0, 1, -923.3175048828125, -569.2180261611938)"/><path fill="#1F2121" d="M942.8,818.5l-16.2-5.4v-55.4l16.2-17.1V818.5z M933.5,808.1l2.2,0.7v-50.6l-2.2,2.3V808.1z" transform="matrix(1, 0, 0, 1, -923.3175048828125, -569.2180261611938)" style="fill-opacity: 1;"/><path d="M 1139 782 L 1139 876.2000122070312 L 1219.300048828125 858 L 1219.300048828125 788.4000244140625 Z" fill="#F26522" transform="matrix(1, 0, 0, 1, -923.3175048828125, -569.2180261611938)"/><path fill="#1F2121" d="M1135.5,880.6V778.2l87.3,7v75.6L1135.5,880.6z M1142.5,785.8v86.1l73.3-16.6v-63.5L1142.5,785.8z" transform="matrix(1, 0, 0, 1, -923.3175048828125, -569.2180261611938)"/><path d="M 1139 876.2000122070312 L 1070.5 860.7000122070312 L 1070.5 881.5 L 1139 910.2999877929688 L 1207.5 881.5 L 1207.5 860.7000122070312 Z" fill="#F26522" transform="matrix(1, 0, 0, 1, -923.3175048828125, -569.2180261611938)"/><path fill="#1F2121" d="M1139,914.1l-72-30.3v-27.5l72,16.3l72-16.3v27.5L1139,914.1z M1074,879.1l65,27.4l65-27.4v-14.1&#10;&#9;&#9;&#9;&#9;l-65,14.7l-65-14.7V879.1z" transform="matrix(1, 0, 0, 1, -923.3175048828125, -569.2180261611938)"/><path d="M 1219.300048828125 788.4000244140625 L 1292.199951171875 788.4000244140625 L 1292.199951171875 837.7999877929688 L 1219.300048828125 866.7999877929688 Z" fill="#0A82A3" transform="matrix(1, 0, 0, 1, -923.3175048828125, -569.2180261611938)"/><path fill="#1F2121" d="M1215.8,872v-87h79.9v55.2L1215.8,872z M1222.8,791.9v69.7l65.9-26.2v-43.5H1222.8z" transform="matrix(1, 0, 0, 1, -923.3175048828125, -569.2180261611938)"/><path d="M 1292.199951171875 788.4000244140625 L 1348 788.4000244140625 L 1348 810.7000122070312 L 1292.199951171875 829.0999755859375 Z" fill="#F26522" transform="matrix(1, 0, 0, 1, -923.3175048828125, -569.2180261611938)"/><path fill="#1F2121" d="M1288.7,833.9v-49h62.8v28.2L1288.7,833.9z M1295.7,791.9v32.3l48.8-16.1v-16.2H1295.7z" transform="matrix(1, 0, 0, 1, -923.3175048828125, -569.2180261611938)"/><path d="M 1184.4000244140625 713.7999877929688 L 1139 705 L 1093.5999755859375 713.7999877929688 L 1058.699951171875 788.4000244140625 L 1139 782 L 1219.300048828125 788.4000244140625 Z" fill="#0A82A3" transform="matrix(1, 0, 0, 1, -923.3175048828125, -569.2180261611938)"/><path fill="#1F2121" d="M1225,792.4l-86-6.9l-86,6.9l38.3-81.7l47.8-9.3l47.8,9.3L1225,792.4z M1096.1,716.9l-31.6,67.6l74.6-6&#10;&#9;&#9;&#9;&#9;l0.3,0l74.3,6l-31.6-67.6l-43-8.3L1096.1,716.9z" transform="matrix(1, 0, 0, 1, -923.3175048828125, -569.2180261611938)"/><path d="M 1184.4000244140625 713.7999877929688 L 1184.4000244140625 668.2999877929688 L 1195.300048828125 652.0999755859375 L 1195.300048828125 618.4000244140625 L 1185.5 608.5 L 1185.5 577.2999877929688 L 1202.699951171875 577.2999877929688 L 1245.199951171875 645.5 L 1245.199951171875 685.9000244140625 L 1219.300048828125 788.4000244140625 Z" fill="#F26522" transform="matrix(1, 0, 0, 1, -923.3175048828125, -569.2180261611938)"/><path fill="#1F2121" d="M1220.3,798.8l-39.4-84.3v-47.4l11-16.1v-31.2l-9.9-9.9v-36.2h22.7l44.1,70.7v41.8l-0.1,0.4L1220.3,798.8&#10;&#9;&#9;&#9;&#9;z M1187.9,713l30.5,65.1l23.4-92.6v-38.9l-41-65.8H1189V607l9.9,9.9v36.3l-11,16.1V713z" transform="matrix(1, 0, 0, 1, -923.3175048828125, -569.2180261611938)"/><path d="M 1182.699951171875 866.7999877929688 L 1175.699951171875 866.7999877929688 L 1175.699951171875 824.5 L 1137.5 806.7000122070312 L 1140.5 800.2999877929688 L 1182.699951171875 820 Z" fill="#1F2121" transform="matrix(1, 0, 0, 1, -923.3175048828125, -569.2180261611938)" style="fill-opacity: 0.1;"/><path d="M 1241.4000244140625 701.2000122070312 L 1221.0999755859375 703.2999877929688 L 1214.800048828125 730.0999755859375 L 1227.699951171875 755.5 Z" fill="#0A82A3" transform="matrix(1, 0, 0, 1, -923.3175048828125, -569.2180261611938)"/><path fill="#1F2121" d="M1228.8,765.4l-17.6-34.9l7.1-30.5l27.7-2.8L1228.8,765.4z M1218.5,729.6l8,15.9l10.2-40.3l-12.8,1.3&#10;&#9;&#9;&#9;&#9;L1218.5,729.6z" transform="matrix(1, 0, 0, 1, -923.3175048828125, -569.2180261611938)"/><path d="M 1245.300048828125 686.4000244140625 L 1204.800048828125 686.4000244140625 L 1204.800048828125 670.2999877929688 L 1214.0999755859375 657.4000244140625 L 1214.0999755859375 635.7000122070312 L 1202.800048828125 635.7000122070312 L 1202.800048828125 628.7000122070312 L 1221.0999755859375 628.7000122070312 L 1221.0999755859375 659.7000122070312 L 1211.800048828125 672.5 L 1211.800048828125 679.4000244140625 L 1245.300048828125 679.4000244140625 Z" fill="#1F2121" transform="matrix(1, 0, 0, 1, -923.3175048828125, -569.2180261611938)" style="fill-opacity: 0.35;"/><path d="M 1282 841.9000244140625 L 1273.9000244140625 829.0999755859375 L 1245.199951171875 839.5999755859375 L 1237.300048828125 859.5999755859375 Z" fill="#F26522" transform="matrix(1, 0, 0, 1, -923.3175048828125, -569.2180261611938)"/><path fill="#1F2121" d="M1231.1,865.9l11.5-29.1l32.8-12l11.8,18.8L1231.1,865.9z M1247.9,842.3l-4.4,11.1l33.2-13.2l-4.3-6.8&#10;&#9;&#9;&#9;&#9;L1247.9,842.3z" transform="matrix(1, 0, 0, 1, -923.3175048828125, -569.2180261611938)"/><path d="M 1348 810.7000122070312 L 1348 759.2000122070312 L 1338.800048828125 749.5 L 1338.800048828125 813.7000122070312 Z" fill="#0A82A3" transform="matrix(1, 0, 0, 1, -923.3175048828125, -569.2180261611938)"/><path fill="#1F2121" d="M1335.3,818.5v-77.8l16.2,17.1v55.4L1335.3,818.5z M1342.3,758.2v50.6l2.2-0.7v-47.5L1342.3,758.2z" transform="matrix(1, 0, 0, 1, -923.3175048828125, -569.2180261611938)"/><path d="M 1135.5 705 H 1142.5 V 782 H 1135.5 V 705 Z" fill="#1F2121" transform="matrix(1, 0, 0, 1, -923.3175048828125, -569.2180261611938)" style="fill-opacity: 0.32;"/>
</svg>